<svg xmlns="http://www.w3.org/2000/svg" width="40" height="39.996" viewBox="0 0 40 39.996"><defs><style>.a{fill:#0f3153;}</style></defs><g transform="translate(-55.914 -29.199)"><path class="a" d="M74.921,29.216c-.077,0-.367.028-.647.049a19.922,19.922,0,0,0-9.948,3.63A19.157,19.157,0,0,0,61.76,35.07a20,20,0,0,0,9.175,33.506,18.86,18.86,0,0,0,4.983.619,18.605,18.605,0,0,0,4.815-.577,19.633,19.633,0,0,0,6.759-3.1,20.349,20.349,0,0,0,5.361-5.661,20.039,20.039,0,0,0,3.035-9.368,27.1,27.1,0,0,0-.056-3.238,16.915,16.915,0,0,0-.773-3.783,1.205,1.205,0,0,0-.535-.427A1.375,1.375,0,0,0,94.192,43a.971.971,0,0,0-.965.951,4.114,4.114,0,0,0,.136.734,18.359,18.359,0,0,1,.157,8.35A18.14,18.14,0,0,1,84.73,64.918a18.079,18.079,0,0,1-11.767,2.053,17.752,17.752,0,0,1-8.231-3.644,19.469,19.469,0,0,1-3.525-3.717,17.861,17.861,0,0,1-3.021-7.2,19.282,19.282,0,0,1-.224-4.668,17.565,17.565,0,0,1,1.7-6.3A15.342,15.342,0,0,1,60.9,39.245a18.376,18.376,0,0,1,4.081-4.364A17.849,17.849,0,0,1,71.25,31.8a17.215,17.215,0,0,1,3.374-.559,17.865,17.865,0,0,1,12.169,3.605c.259.2.532.409.6.476l.133.115-.052.147a2.457,2.457,0,0,0,.5,2.353,2.645,2.645,0,0,0,1.259.755,2.977,2.977,0,0,0,1.14,0,2.521,2.521,0,0,0,1.738-1.595,2.432,2.432,0,0,0-.423-2.311,2.468,2.468,0,0,0-2.532-.818l-.2.052-.287-.238a19.909,19.909,0,0,0-4.056-2.595,19.6,19.6,0,0,0-7.574-1.958c-.528-.031-1.776-.038-2.116-.01Z" transform="translate(0 0)"/><path class="a" d="M365.766,310.752c-.374.966-1.185,3.081-1.809,4.7s-1.9,4.943-2.845,7.386-1.717,4.453-1.724,4.467.98.028,2.2.028H363.8l.13-.363c.074-.2.335-.9.578-1.551l.444-1.188h3.328a32.542,32.542,0,0,0,3.318-.046c-.035-.1-.578-1.646-.867-2.475l-.31-.881-2.2-.018-2.2-.018,1.431-3.945c.86-2.369,1.442-3.921,1.453-3.885s.585,1.657,1.273,3.61,1.823,5.169,2.521,7.146l1.266,3.6,2.207.011c1.213,0,2.207,0,2.207-.007s-.286-.758-.638-1.664-1.107-2.866-1.678-4.351-1.213-3.148-1.428-3.7-.582-1.512-.822-2.133-.864-2.246-1.393-3.614-.991-2.57-1.03-2.672l-.067-.183h-4.883Z" transform="translate(-292.94 -270.085)"/></g></svg>