<svg xmlns="http://www.w3.org/2000/svg" width="50.941" height="30.438" viewBox="0 0 50.941 30.438"><defs><style>.a{fill:#010101;}.b{fill:#f8b10a;}</style></defs><g transform="translate(0.109 -12.4)"><path class="a" d="M25.3,24.828c.164-.573.245-1.145.409-1.718l2.209-9.328c.164-.736.327-.9,1.145-.9h1.309c.573,0,.736.164.9.736.164.818.409,1.555.573,2.373.736,2.946,1.391,5.973,2.127,8.918a.08.08,0,0,0,.082.082c0-.082,1.964-7.528,2.946-11.209V13.7c.164-.736.409-.9,1.145-.9h1.391c.327,0,.491.164.409.491,0,.164-2.864,9.328-4.173,13.664-.245.736-.409.9-1.227.9H33.323c-.655,0-.818-.164-.982-.818-.409-1.882-.9-3.764-1.309-5.646-.409-1.718-.818-3.436-1.227-5.073,0-.082,0-.164-.082-.164-.164.655-.327,1.309-.491,2.046-.736,2.946-1.391,5.809-2.127,8.755v.082c-.164.655-.327.818-1.064.818H24.486a.658.658,0,0,1-.736-.491,16.491,16.491,0,0,1-.573-1.882c-1.145-3.846-2.373-7.691-3.518-11.537-.082-.164-.082-.409-.164-.573-.082-.327.082-.491.409-.491h1.8a.716.716,0,0,1,.736.491c.164.655.327,1.309.491,1.882.818,3.109,2.291,9.573,2.373,9.573Z" transform="translate(-3.56 -0.073)"/><path class="b" d="M25.508,47.271c-1.227-.082-2.127-.082-3.109-.164a33.408,33.408,0,0,1-5.727-.9,36.836,36.836,0,0,1-8.264-2.946,38.276,38.276,0,0,1-8.018-5.4l-.327-.327a.4.4,0,0,1-.082-.573.382.382,0,0,1,.573-.082c.327.164.573.327.9.491a49.091,49.091,0,0,0,11.619,4.582A48.119,48.119,0,0,0,19.044,43.1c.982.164,2.046.245,3.027.327,1.473.082,3.027.164,4.5.164,1.227,0,2.455-.082,3.682-.164a46.616,46.616,0,0,0,10.064-1.964,39.586,39.586,0,0,0,4.909-1.8,1.155,1.155,0,0,1,.736-.082.714.714,0,0,1,.327,1.145,4.537,4.537,0,0,1-.655.491A31.011,31.011,0,0,1,38.272,44.9a33.985,33.985,0,0,1-6.3,1.636c-.982.164-2.046.327-3.027.409A31.752,31.752,0,0,1,25.508,47.271Z" transform="translate(0 -4.434)"/><path class="a" d="M12.056,25.915a6.822,6.822,0,0,1-1.882,1.555,6.084,6.084,0,0,1-5.318.327,3.749,3.749,0,0,1-2.373-3.191,4.3,4.3,0,0,1,.491-3.027,5.013,5.013,0,0,1,3.191-2.373A8.137,8.137,0,0,1,9.6,19.042a20.928,20.928,0,0,1,2.209.409h.082a13.156,13.156,0,0,0-.082-2.536A2.374,2.374,0,0,0,9.52,14.869a9.4,9.4,0,0,0-4.5.573c-.327.164-.736.245-1.064.409-.245.082-.491,0-.491-.327V14.215c0-.327.327-.491.573-.573.491-.164.9-.409,1.391-.573a1.163,1.163,0,0,1,.491-.164,10.31,10.31,0,0,1,5.237-.164,4.169,4.169,0,0,1,3.436,3.682,12.207,12.207,0,0,1,.164,1.718v5.073a5.883,5.883,0,0,0,.655,2.864c.082.082.082.164.164.245a.513.513,0,0,1-.164.655,13.326,13.326,0,0,1-1.391.9.539.539,0,0,1-.736-.245C12.957,27.224,12.138,26.079,12.056,25.915ZM8.865,20.924H8.538a4.042,4.042,0,0,0-1.964.409,2.312,2.312,0,0,0-1.064,1.391v.164a5.032,5.032,0,0,0-.082,1.145A2.026,2.026,0,0,0,7.229,26a4.338,4.338,0,0,0,3.027-.573A2.783,2.783,0,0,0,11.811,23.3a3.983,3.983,0,0,0,.082-.982v-.491a.89.89,0,0,0-.082-.409c-.082-.082-.082-.082-.164-.082-.409-.082-.736-.164-1.145-.245A12.3,12.3,0,0,0,8.865,20.924Z" transform="translate(-0.458 -0.015)"/><path class="a" d="M51.609,12.4a9.038,9.038,0,0,1,3.355.573,3.822,3.822,0,0,1,.818.409.859.859,0,0,1,.409.736V15.1a.414.414,0,0,1-.573.409c-.245-.082-.409-.164-.655-.245a7.7,7.7,0,0,0-4.5-.409,1.517,1.517,0,0,0-.573.164,1.794,1.794,0,0,0-.327,3.109,5.455,5.455,0,0,0,1.718.736c1.064.327,2.127.655,3.109,1.064A3.62,3.62,0,0,1,56.764,22.3a4.263,4.263,0,0,1-1.882,5.073,6.185,6.185,0,0,1-2.864.9,11.336,11.336,0,0,1-4.909-.655,3.822,3.822,0,0,1-.818-.409.9.9,0,0,1-.491-.818V25.41c0-.409.245-.573.655-.409l.736.245a10.121,10.121,0,0,0,4.664.655,4.028,4.028,0,0,0,1.391-.491,1.815,1.815,0,0,0-.082-3.191,18.879,18.879,0,0,0-2.291-.818l-2.209-.736A4.354,4.354,0,0,1,46.045,17.8a3.776,3.776,0,0,1,1.391-4.091,5.627,5.627,0,0,1,3.355-1.227A3.757,3.757,0,0,1,51.609,12.4Z" transform="translate(-8.346 0)"/><path class="b" d="M59.991,37.293a11.5,11.5,0,0,1-2.864,6.955l-.245.245c-.164.164-.327.245-.409.409-.164.082-.327.164-.409,0-.164-.082-.082-.245-.082-.409a2.139,2.139,0,0,1,.245-.655c.082-.245.164-.409.245-.655.164-.409.327-.9.491-1.309a10.557,10.557,0,0,0,.655-3.191.811.811,0,0,0-.655-.9,7.555,7.555,0,0,0-2.373-.245c-1.227,0-2.455.164-3.682.245-.164,0-.327,0-.409-.164,0-.082,0-.327.164-.409a3.843,3.843,0,0,1,.736-.491,9.061,9.061,0,0,1,3.273-1.064,9.286,9.286,0,0,1,4.5.164,1.645,1.645,0,0,1,.655.327c.327.327.164.736.164,1.145Z" transform="translate(-9.2 -4.192)"/></g></svg>