<svg xmlns="http://www.w3.org/2000/svg" width="41.971" height="28.736" viewBox="0 0 41.971 28.736"><defs><style>.a{fill:#ff2d20;}</style></defs><g transform="translate(-0.167 -0.563)"><g transform="translate(0.167 0.563)"><path class="a" d="M41.969,13.716c-.3-.3-4.141-5.138-4.789-5.937-.7-.8-1-.649-1.447-.6s-5.288.9-5.837.948c-.549.1-.9.3-.549.8.3.449,3.492,4.939,4.19,5.986L20.817,17.956,10.74,1.045c-.4-.6-.5-.8-1.4-.748S1.411.945.913.945c-.5.05-1.048.249-.549,1.447S8.845,20.75,9.044,21.249a1.715,1.715,0,0,0,2.145,1c1.4-.349,6.186-1.6,8.83-2.295,1.4,2.494,4.19,7.583,4.739,8.331.7,1,1.2.8,2.245.5.848-.249,13.07-4.639,13.619-4.889s.9-.4.5-.948c-.3-.4-3.492-4.739-5.188-6.984,1.147-.3,5.288-1.4,5.737-1.546C42.169,14.265,42.269,14.015,41.969,13.716Zm-23.1,4.739c-.15.05-7.283,1.746-7.633,1.846-.4.1-.4.05-.4-.1-.1-.15-8.481-17.51-8.63-17.71-.1-.2-.1-.4,0-.4s6.735-.6,6.934-.6c.249,0,.2.05.3.2,0,0,9.329,16.113,9.478,16.363.2.249.1.349-.05.4ZM38.926,22.2c.1.2.249.3-.15.4-.349.15-12.023,4.091-12.272,4.19s-.4.15-.7-.3S21.715,19.5,21.715,19.5L34.137,16.26c.3-.1.4-.15.6.15C34.935,16.759,38.826,22.047,38.926,22.2Zm.8-8.78c-.3.05-4.839,1.2-4.839,1.2L31.144,9.526c-.1-.15-.2-.3.05-.349s4.49-.8,4.689-.848.349-.1.6.249c.249.3,3.442,4.39,3.592,4.54S40.024,13.367,39.724,13.417Z" transform="translate(-0.167 -0.289)"/></g></g></svg>