<svg xmlns="http://www.w3.org/2000/svg" width="35.68" height="35.685" viewBox="0 0 35.68 35.685"><defs><style>.a{fill:#ff7547;}</style></defs><g transform="translate(-0.031)"><path class="a" d="M66.908,54.87a7.431,7.431,0,0,1,0,10.5L65.4,66.874a7.423,7.423,0,0,1-10.5,0L42.631,54.612a1.487,1.487,0,1,0-2.1,2.1L52.8,68.977a10.4,10.4,0,0,0,14.7,0l1.507-1.507a10.408,10.408,0,0,0,0-14.7L56.748,40.5a1.487,1.487,0,1,0-2.1,2.1Zm0,0" transform="translate(-36.339 -36.338)"/><path class="a" d="M190.717,197.376a6.69,6.69,0,1,0-6.69-6.69A6.7,6.7,0,0,0,190.717,197.376Zm0-10.406A3.717,3.717,0,1,1,187,190.686,3.721,3.721,0,0,1,190.717,186.969Zm0,0" transform="translate(-166.9 -166.9)"/><path class="a" d="M64.467,128.436a1.486,1.486,0,0,0,0,2.1l4.46,4.46a1.486,1.486,0,0,0,2.1-2.1l-4.46-4.46A1.486,1.486,0,0,0,64.467,128.436Zm0,0" transform="translate(-58.054 -116.107)"/><path class="a" d="M4.927,7a1.486,1.486,0,0,0,2.1-2.1L2.569.436a1.486,1.486,0,0,0-2.1,2.1Zm0,0" transform="translate(0 0)"/><path class="a" d="M152.467,104.436a1.486,1.486,0,0,0,0,2.1l2.973,2.973a1.486,1.486,0,0,0,2.1-2.1l-2.973-2.973A1.486,1.486,0,0,0,152.467,104.436Zm0,0" transform="translate(-137.877 -94.337)"/><path class="a" d="M107.44,29.511a1.486,1.486,0,1,0,2.1-2.1l-2.973-2.973a1.486,1.486,0,0,0-2.1,2.1Zm0,0" transform="translate(-94.337 -21.77)"/></g></svg>