<svg xmlns="http://www.w3.org/2000/svg" width="42.001" height="42.001" viewBox="0 0 42.001 42.001"><defs><style>.a{fill:#546e7a;}.b{fill:#006b97;}</style></defs><g transform="translate(0 -0.002)"><g transform="translate(0 0.002)"><path class="a" d="M41.84,40.622a13.36,13.36,0,0,0-3.119-2.747,12.241,12.241,0,0,1-3.377-3.088c2.593-.542,5.875-1.524,6.033-1.571a.876.876,0,0,0,.419-1.4,26.722,26.722,0,0,0-10.554-7.149c-.283-.567-.6-1.293-.965-2.133C27.695,16.608,22.333,4.311,8.189,2.657,7.062,1.9,4.108,0,2.625,0,.785,0,0,.787,0,2.627c0,.9.729,1.942,1.918,3.577A11.111,11.111,0,0,1,3.5,8.752,19.059,19.059,0,0,0,6.832,16.8l-.143.3A12.8,12.8,0,0,0,5.25,23.628c0,4.6,2.2,7,4.375,7,1.349,0,2.021-1.531,2.344-3.324a20.323,20.323,0,0,0,5.9,7.539.876.876,0,1,0,1.01-1.43c-4.351-3.071-6.651-9.987-6.674-10.057a.875.875,0,0,0-1.707.272c0,2.4-.458,4.963-.875,5.25C8.363,28.877,7,26.87,7,23.627a11.08,11.08,0,0,1,1.27-5.772c.132-.279.269-.567.405-.872a.876.876,0,0,0-.228-1.019C7.1,14.8,5.25,9.914,5.25,8.752c0-.9-.729-1.942-1.918-3.577A11.111,11.111,0,0,1,1.75,2.627c0-.875,0-.875.875-.875.709,0,3.021,1.283,4.755,2.472a.874.874,0,0,0,.4.148C21.08,5.814,26.02,17.145,28.673,23.233c.447,1.025.833,1.912,1.182,2.559a.874.874,0,0,0,.49.414,25.272,25.272,0,0,1,9.15,5.731c-1.49.418-3.87,1.054-5.512,1.327a.875.875,0,0,0-.7,1.075c.537,2.153,2.6,3.642,4.42,4.954a12.259,12.259,0,0,1,2.715,2.34.875.875,0,0,0,1.429-1.012Z" transform="translate(0 -0.002)"/><path class="a" d="M96,75.544a.875.875,0,0,0,.875.875.876.876,0,0,1,.875.875.875.875,0,1,0,1.75,0,2.628,2.628,0,0,0-2.625-2.625A.874.874,0,0,0,96,75.544Z" transform="translate(-88.125 -68.544)"/></g><path class="b" d="M41.84,40.622a13.36,13.36,0,0,0-3.119-2.747,12.241,12.241,0,0,1-3.377-3.088c2.593-.542,5.875-1.524,6.033-1.571a.876.876,0,0,0,.419-1.4,26.722,26.722,0,0,0-10.554-7.149c-.283-.567-.6-1.293-.965-2.133C27.695,16.608,22.333,4.311,8.189,2.657,7.062,1.9,4.108,0,2.625,0,.785,0,0,.787,0,2.627c0,.9.729,1.942,1.918,3.577A11.111,11.111,0,0,1,3.5,8.752,19.059,19.059,0,0,0,6.832,16.8l-.143.3A12.8,12.8,0,0,0,5.25,23.628c0,4.6,2.2,7,4.375,7,1.349,0,2.021-1.531,2.344-3.324a20.323,20.323,0,0,0,5.9,7.539.876.876,0,1,0,1.01-1.43c-4.351-3.071-6.651-9.987-6.674-10.057a.875.875,0,0,0-1.707.272c0,2.4-.458,4.963-.875,5.25C8.363,28.877,7,26.87,7,23.627a11.08,11.08,0,0,1,1.27-5.772c.132-.279.269-.567.405-.872a.876.876,0,0,0-.228-1.019C7.1,14.8,5.25,9.914,5.25,8.752c0-.9-.729-1.942-1.918-3.577A11.111,11.111,0,0,1,1.75,2.627c0-.875,0-.875.875-.875.709,0,3.021,1.283,4.755,2.472a.874.874,0,0,0,.4.148C21.08,5.814,26.02,17.145,28.673,23.233c.447,1.025.833,1.912,1.182,2.559a.874.874,0,0,0,.49.414,25.272,25.272,0,0,1,9.15,5.731c-1.49.418-3.87,1.054-5.512,1.327a.875.875,0,0,0-.7,1.075c.537,2.153,2.6,3.642,4.42,4.954a12.259,12.259,0,0,1,2.715,2.34.875.875,0,0,0,1.429-1.012ZM7.875,7a.875.875,0,0,0,.875.875.876.876,0,0,1,.875.875.875.875,0,1,0,1.75,0A2.628,2.628,0,0,0,8.75,6.127.874.874,0,0,0,7.875,7Z" transform="translate(0)"/></g></svg>