<svg xmlns="http://www.w3.org/2000/svg" xmlns:xlink="http://www.w3.org/1999/xlink" width="40" height="40" viewBox="0 0 40 40"><defs><style>.a{fill:#61dafb;}.b{clip-path:url(#a);}</style><clipPath id="a"><rect class="a" width="40" height="40" transform="translate(-1.202 -1.201)"/></clipPath></defs><g class="b" transform="translate(1.202 1.201)"><path class="a" d="M78.992,19.589a3.379,3.379,0,1,0,4.617,1.237h0a3.38,3.38,0,0,0-4.617-1.237ZM94.14,23.256q-.333-.38-.7-.763.258-.271.5-.542c3.039-3.414,4.321-6.837,3.133-8.9-1.14-1.974-4.529-2.564-8.773-1.737q-.628.122-1.247.277-.119-.409-.253-.814c-1.439-4.338-3.765-7.16-6.142-7.159-2.279,0-4.482,2.644-5.887,6.732q-.207.606-.383,1.221-.415-.1-.833-.187c-4.478-.919-8.083-.314-9.27,1.746-1.138,1.975.052,5.2,2.892,8.463q.422.483.869.946c-.35.361-.683.723-.993,1.082-2.771,3.213-3.893,6.389-2.757,8.355,1.173,2.032,4.728,2.7,9.056,1.844q.526-.1,1.046-.234.19.665.418,1.319c1.4,4.006,3.589,6.564,5.86,6.563,2.345,0,4.7-2.747,6.122-6.924q.168-.5.32-1.026.671.168,1.353.3c4.169.789,7.48.168,8.613-1.8,1.17-2.033-.037-5.443-2.942-8.761ZM65.684,13.938c.733-1.268,3.677-1.762,7.543-.969q.37.076.754.17a38.614,38.614,0,0,0-.8,5.067,39.443,39.443,0,0,0-3.981,3.2q-.416-.427-.809-.88h0C65.958,17.74,65,15.129,65.684,13.938Zm7.355,10.84c-.966-.733-1.864-1.481-2.679-2.235.814-.749,1.713-1.5,2.677-2.226q-.053,1.115-.051,2.232T73.039,24.778Zm0,7.457a13.694,13.694,0,0,1-5,.176A3.343,3.343,0,0,1,65.7,31.169c-.689-1.193.212-3.743,2.582-6.491q.447-.518.923-1.007a38.719,38.719,0,0,0,3.987,3.217,39.4,39.4,0,0,0,.806,5.133Q73.518,32.139,73.039,32.235ZM86.478,17.022q-.952-.6-1.928-1.16-.96-.553-1.943-1.064c1.122-.471,2.225-.875,3.29-1.2a34.46,34.46,0,0,1,.579,3.427ZM76.3,10.88c1.2-3.5,2.986-5.64,4.359-5.641,1.465,0,3.364,2.306,4.606,6.051q.122.366.229.737a38.7,38.7,0,0,0-4.782,1.837,37.942,37.942,0,0,0-4.767-1.858Q76.107,11.438,76.3,10.88Zm-.756,2.694a34.744,34.744,0,0,1,3.273,1.215q-1.989,1.026-3.874,2.235A34.527,34.527,0,0,1,75.542,13.573Zm-.6,14.5q.941.6,1.908,1.16.987.569,2,1.089a34.468,34.468,0,0,1-3.3,1.258,34.882,34.882,0,0,1-.61-3.507Zm10.324,5.953a13.7,13.7,0,0,1-2.343,4.415h0a3.339,3.339,0,0,1-2.249,1.413c-1.378,0-3.137-2.053-4.334-5.479q-.211-.61-.389-1.226a38.061,38.061,0,0,0,4.786-1.911,39.326,39.326,0,0,0,4.823,1.851q-.137.471-.3.936Zm.686-2.506c-1.077-.333-2.2-.742-3.335-1.221q.963-.507,1.939-1.069,1-.579,1.953-1.187a34.344,34.344,0,0,1-.558,3.48Zm.845-8.973q0,1.724-.108,3.445c-.932.631-1.917,1.247-2.941,1.838s-2.03,1.13-3.022,1.62q-1.565-.75-3.069-1.616T74.736,26q-.13-1.72-.131-3.447h0q0-1.725.129-3.447c.932-.637,1.909-1.253,2.919-1.836s2.038-1.125,3.056-1.613q1.546.751,3.035,1.61t2.93,1.814q.122,1.731.122,3.466ZM88.606,12.9c3.636-.707,6.377-.231,7.064.958.733,1.267-.317,4.066-2.94,7.013h0q-.217.244-.451.488a37.9,37.9,0,0,0-4.057-3.194,37.872,37.872,0,0,0-.767-5.013Q88.041,13.015,88.606,12.9Zm-.244,7.352A34.253,34.253,0,0,1,91.127,22.5,34.156,34.156,0,0,1,88.37,24.79q.044-1.124.043-2.249Q88.413,21.4,88.361,20.256ZM95.681,31.21c-.688,1.195-3.346,1.693-6.911,1.018q-.61-.115-1.258-.275a37.835,37.835,0,0,0,.733-5.075,37.739,37.739,0,0,0,4.044-3.247q.334.346.635.69h0a13.683,13.683,0,0,1,2.655,4.235A3.34,3.34,0,0,1,95.681,31.21Z" transform="translate(-62.149 -3.747)"/></g></svg>