<svg xmlns="http://www.w3.org/2000/svg" width="40.261" height="40.261" viewBox="0 0 40.261 40.261"><defs><style>.a{fill:#fff;}</style></defs><path class="a" d="M2.587,7.6A1.975,1.975,0,0,1,4.014,7H9.631a3.341,3.341,0,0,1,3.338,3.028l.686,7.037h4.733a7.439,7.439,0,0,1-.23-2.9h0a7.381,7.381,0,1,1,14.426,2.9H41.59a.671.671,0,0,1,.659.8L39.1,34.22a2.013,2.013,0,0,1-1.976,1.634H11.395a.671.671,0,1,0,0,1.342H37.564a.671.671,0,0,1,0,1.342H32.85a3.32,3.32,0,0,1,.688,2.013,3.355,3.355,0,1,1-6.71,0,3.32,3.32,0,0,1,.688-2.013H18.758a3.32,3.32,0,0,1,.688,2.013,3.355,3.355,0,0,1-6.71,0,3.32,3.32,0,0,1,.688-2.013h-2.03a2.013,2.013,0,0,1-.076-4.019L8.778,11.026H4.089a2.064,2.064,0,0,1-2.08-1.837A1.979,1.979,0,0,1,2.587,7.6ZM28.17,40.55a2.013,2.013,0,1,0,2.013-2.013A2.013,2.013,0,0,0,28.17,40.55Zm-14.091,0a2.013,2.013,0,1,0,2.013-2.013A2.013,2.013,0,0,0,14.079,40.55Zm10.736-8.723V29.719a2.678,2.678,0,0,1-1.136-.617.658.658,0,0,1-.206.042H20.2l.262,2.684Zm5.471,0,.448-2.684H27.5a.658.658,0,0,1-.206-.042,2.678,2.678,0,0,1-1.136.617v2.108Zm7.157-10.736H33.435l-.448,2.684H37Zm-7.26,0h-.466a7.368,7.368,0,0,1-1.146.666.671.671,0,0,0-.4.609v.068h.672a.671.671,0,0,1,.671.671v.671h2.116l.448-2.684ZM22.8,23.775v1.342H28.17V23.775ZM14.7,27.8h4.019l-.262-2.684H14.44Zm5.368,0H22.9a2.643,2.643,0,0,1-.1-.671v-.671h-.671a.671.671,0,0,1-.671-.671v-.671H19.808Zm5.414.671a1.342,1.342,0,0,0,1.342-1.342v-.671H24.144v.671A1.342,1.342,0,0,0,25.486,28.472Zm2.589-.671h2.882l.448-2.684H29.512v.671a.671.671,0,0,1-.671.671H28.17v.671a2.643,2.643,0,0,1-.1.671Zm8.7-2.684H32.764L32.317,27.8h4.008Zm-4.678,4.026-.448,2.684h4.008l.447-2.684Zm-13.239,0h-4.02l.263,2.684h4.019Zm-4.545-5.368h4.019l-.262-2.684h-4.02Zm5.368,0H21.46V23.1a.671.671,0,0,1,.671-.671H22.8v-.067a.671.671,0,0,0-.4-.608,7.417,7.417,0,0,1-1.152-.667H19.415Zm9.834-13.224a5.986,5.986,0,0,0-4.717-1.5,6.056,6.056,0,0,0-5.305,5.271h0a6.087,6.087,0,0,0,.466,3.139c0,.01.009.02.013.031a6.031,6.031,0,0,0,3,3.047,2.024,2.024,0,0,1,1.178,1.826v.067h.671V15.052a.671.671,0,1,0-1.007.582.671.671,0,0,1-.671,1.162,2.01,2.01,0,1,1,2.349-3.233A2.01,2.01,0,1,1,27.834,16.8a.671.671,0,0,1-.671-1.162.671.671,0,1,0-1.007-.583v7.381h.671v-.067a2.025,2.025,0,0,1,1.181-1.827,6.058,6.058,0,0,0,3-3.062h0a6,6,0,0,0-1.5-6.925ZM4.089,9.684H8.778a1.348,1.348,0,0,1,1.338,1.2L12.67,34.511H37.127a.671.671,0,0,0,.659-.545l2.993-15.559H32.05a7.414,7.414,0,0,1-.882,1.342h7.067a.671.671,0,0,1,.662.782L36.884,32.609a.671.671,0,0,1-.662.56H14.488a.671.671,0,0,1-.668-.6L12.639,20.487a.671.671,0,0,1,.671-.738H19.8a7.356,7.356,0,0,1-.88-1.342H13.045a.671.671,0,0,1-.668-.6l-.745-7.643a2,2,0,0,0-2-1.818H4.014a.656.656,0,0,0-.478.205.649.649,0,0,0-.19.528A.727.727,0,0,0,4.089,9.684Z" transform="translate(-2 -3.645)"/><path class="a" d="M26.671,4.684A.671.671,0,0,1,26,4.013V2.671a.671.671,0,0,1,1.342,0V4.013A.671.671,0,0,1,26.671,4.684Z" transform="translate(-3.185 -2)"/><path class="a" d="M15.831,8.781a.671.671,0,1,1-.949-.949l.949-.949a.671.671,0,0,1,.949.949Z" transform="translate(14.771 -3.542)"/><path class="a" d="M12.013,19.342H10.671a.671.671,0,1,1,0-1.342h1.342a.671.671,0,1,1,0,1.342Z" transform="translate(22.209 -7.264)"/><path class="a" d="M42.684,18.671a.671.671,0,0,1-.671.671H40.671a.671.671,0,0,1,0-1.342h1.342A.671.671,0,0,1,42.684,18.671Z" transform="translate(-27.921 -7.264)"/><path class="a" d="M38.521,8.976a.671.671,0,0,1-.474-.2l-.95-.949a.671.671,0,1,1,.949-.949l.949.95a.671.671,0,0,1-.475,1.145Z" transform="translate(-22.349 -3.541)"/></svg>