<svg xmlns="http://www.w3.org/2000/svg" width="42" height="42" viewBox="0 0 42 42"><defs><style>.a{fill:#fff;}</style></defs><g transform="translate(-16 -16)"><path class="a" d="M17.4,29.3H16V26.5A3.5,3.5,0,0,1,19.5,23H43.3V21.6H41.9a.7.7,0,0,1-.495-1.195l4.2-4.2a.7.7,0,0,1,.99,0l4.2,4.2A.7.7,0,0,1,50.3,21.6H48.9V23h2.8a3.5,3.5,0,0,1,3.5,3.5v14H53.8v-14a2.1,2.1,0,0,0-2.1-2.1H48.9V37H47.5V20.9a.7.7,0,0,1,.7-.7h.41L46.1,17.69,43.59,20.2H44a.7.7,0,0,1,.7.7V37.7H43.3V24.4H19.5a2.1,2.1,0,0,0-2.1,2.1ZM19.5,51H31.159l-1.68,5.6H27.9V58H43.3V56.6H41.721l-.9-3L39.48,54l.78,2.6H30.941l1.68-5.6H37.7V49.6H19.5a2.1,2.1,0,0,1-2.1-2.1v-.7H37V45.4H17.4V30.7H16V47.5A3.5,3.5,0,0,0,19.5,51Zm21-11.9V27.9H37.7V44H19.5V42.6h2.8V37a.7.7,0,0,1,.7-.7h4.2a.7.7,0,0,1,.7.7v5.6h1.4V32.1a.7.7,0,0,1,.7-.7h4.2a.7.7,0,0,1,.7.7V42.6h1.4V27.2a.7.7,0,0,1,.7-.7h4.2a.7.7,0,0,1,.7.7V39.1Zm-14-1.4H23.7v4.9h2.8Zm7-4.9H30.7v9.8h2.8Zm-14-7v1.4h1.4V25.8Zm4.2,0H22.3v1.4h1.4Zm1.4,0v1.4h1.4V25.8ZM57.385,54.415A2.1,2.1,0,0,1,55.9,58a2.144,2.144,0,0,1-1.485-.615l-3.351-3.351a8.407,8.407,0,1,1,2.969-2.969ZM53.8,46.8a7,7,0,1,0-7,7A7,7,0,0,0,53.8,46.8Zm2.595,8.606-3.184-3.184a8.477,8.477,0,0,1-.989.989l3.184,3.184a.7.7,0,1,0,.989-.989ZM52.4,46.8a5.6,5.6,0,1,1-5.6-5.6A5.6,5.6,0,0,1,52.4,46.8Zm-1.4,0A4.2,4.2,0,1,0,46.8,51,4.2,4.2,0,0,0,51,46.8Zm-7,0h1.4a1.4,1.4,0,0,1,1.4-1.4V44A2.8,2.8,0,0,0,44,46.8Zm9.1-26.6h1.4A4.2,4.2,0,0,0,50.3,16v1.4a2.8,2.8,0,0,1,2.8,2.8Z"/></g></svg>