<svg xmlns="http://www.w3.org/2000/svg" width="38.145" height="37.977" viewBox="0 0 38.145 37.977"><defs><style>.a{fill:#fff;}</style></defs><g transform="translate(0 0)"><path class="a" d="M37.6,11.911h0l-2.462-.351a.633.633,0,0,1-.291-1.133l1.99-1.492a.633.633,0,0,0,.127-.886L34.686,5.008a.633.633,0,0,0-.886-.127L31.81,6.374a.633.633,0,0,1-1.009-.6l.352-2.462a.633.633,0,0,0-.537-.716h0l-3.757-.537a.633.633,0,0,0-.716.537h0L25.79,5.062a.633.633,0,0,1-1.133.291l-1.492-1.99a.633.633,0,0,0-.886-.127l-1.9,1.427a12.246,12.246,0,0,0-2.589,0,12.026,12.026,0,0,0-10.6,10.783c-.017.179-.023.357-.032.535h-.19a.633.633,0,0,0-.619.506l-.437,2.08L4.155,17.36a.633.633,0,0,0-.807.073l-1.9,1.9a.633.633,0,0,0-.073.806l1.2,1.749L.5,22.324a.633.633,0,0,0-.5.62v2.532a.633.633,0,0,0,.5.62l2.08.437-1.2,1.749a.633.633,0,0,0,.073.806l1.9,1.9a.633.633,0,0,0,.807.073l1.749-1.206.437,2.08a.633.633,0,0,0,.619.506H9.5a.633.633,0,0,0,.62-.5l.437-2.08,1.749,1.2a.633.633,0,0,0,.806-.073L14.092,30v1.8a2.524,2.524,0,0,0,1.266,2.18V37.5a2.532,2.532,0,0,0,2.532,2.532h2.532A2.532,2.532,0,0,0,22.953,37.5V33.985a2.524,2.524,0,0,0,1.266-2.18V29.3a3.1,3.1,0,0,1,1.464-2.584,12.147,12.147,0,0,0,1.49-1.139l-.844-.943a10.776,10.776,0,0,1-1.334,1.02A4.36,4.36,0,0,0,22.953,29.3v2.505a1.266,1.266,0,0,1-1.266,1.266H16.624a1.266,1.266,0,0,1-1.266-1.266V29.247a4.258,4.258,0,0,0-2.008-3.572A10.728,10.728,0,0,1,19.019,5.864a.689.689,0,0,0-.025.069.633.633,0,0,0,.121.469l1.492,1.989a.62.62,0,0,1,.038.7.629.629,0,0,1-.633.3L17.55,9.046a.633.633,0,0,0-.716.537h0L16.3,13.343a.633.633,0,0,0,.537.716h0l2.462.352a.633.633,0,0,1,.291,1.133L17.6,17.036a.633.633,0,0,0-.127.886l2.279,3.038a.633.633,0,0,0,.886.127l1.99-1.492a.633.633,0,0,1,1.006.6l-.351,2.462a.633.633,0,0,0,.537.716h0l3.76.537a.7.7,0,0,0,.089.006.633.633,0,0,0,.627-.543l.351-2.462a.633.633,0,0,1,1.133-.291l1.492,1.989a.633.633,0,0,0,.886.127l3.038-2.279a.633.633,0,0,0,.127-.886l-1.492-1.989a.622.622,0,0,1-.038-.7.615.615,0,0,1,.633-.3l2.462.351a.633.633,0,0,0,.716-.537h0l.537-3.76A.633.633,0,0,0,37.6,11.911ZM16.624,34.337h5.064V35.6H16.624Zm0,2.532h5.064V37.5a1.266,1.266,0,0,1-1.266,1.266H17.889A1.266,1.266,0,0,1,16.624,37.5ZM11.585,25.954a11.963,11.963,0,0,0,1.082.788,3.09,3.09,0,0,1,1.275,1.62l-1.358,1.355L11.27,28.81a1.266,1.266,0,0,0-1.957.782l-.332,1.58h-1.5l-.332-1.578a1.266,1.266,0,0,0-1.957-.782l-1.315.9L2.719,28.566l.906-1.314a1.266,1.266,0,0,0-.781-1.958l-1.578-.332v-1.5l1.578-.332a1.266,1.266,0,0,0,.782-1.954l-.906-1.318L3.872,18.7l1.316.906a1.266,1.266,0,0,0,1.956-.782l.111-.527a12.053,12.053,0,0,0,.5,2.146,3.8,3.8,0,1,0,3.827,5.507Zm-.983-.892a2.528,2.528,0,1,1-2.374-3.384h.024A11.987,11.987,0,0,0,10.6,25.062Zm25.833-9.483L34.6,15.317a1.9,1.9,0,0,0-1.787,3.019l1.112,1.483L31.9,21.338l-1.113-1.482a1.9,1.9,0,0,0-3.4.87l-.256,1.838-2.506-.358.262-1.836a1.9,1.9,0,0,0-3.019-1.788l-1.483,1.112-1.519-2.025,1.482-1.113a1.9,1.9,0,0,0-.87-3.4L17.642,12.9,18,10.39l1.836.262a1.9,1.9,0,0,0,1.788-3.019L20.508,6.148l2.025-1.519,1.113,1.483a1.9,1.9,0,0,0,3.4-.87l.262-1.836,2.506.358L29.551,5.6A1.9,1.9,0,0,0,32.57,7.387l1.483-1.112L35.572,8.3,34.089,9.413a1.9,1.9,0,0,0,.87,3.4l1.836.262Z" transform="translate(0 -2.057)"/></g></svg>