<svg xmlns="http://www.w3.org/2000/svg" width="45.709" height="45.655" viewBox="0 0 45.709 45.655"><defs><style>.a{fill:#fff;stroke:#fff;stroke-width:0.5px;}</style></defs><g transform="translate(0.304 0.304)"><path class="a" d="M319.4,51.924a.661.661,0,0,0-.932.06l-1.518,1.727a19.929,19.929,0,0,0-15.089-17.738.661.661,0,1,0-.316,1.283A18.608,18.608,0,0,1,315.629,53.79l-1.751-1.419a.661.661,0,1,0-.832,1.026l2.571,2.083a1.2,1.2,0,0,0,1.657-.14l2.185-2.485A.661.661,0,0,0,319.4,51.924Z" transform="translate(-274.523 -32.786)"/><path class="a" d="M36.457,18.563a.66.66,0,0,0,.8-.483A18.607,18.607,0,0,1,53.791,3.994L52.373,5.745a.661.661,0,1,0,1.027.832l2.083-2.571a1.2,1.2,0,0,0-.14-1.657L52.857.165a.661.661,0,0,0-.872.992l1.727,1.518A19.929,19.929,0,0,0,35.973,17.764a.661.661,0,0,0,.483.8Z" transform="translate(-32.787 0)"/><path class="a" d="M18.08,269.791A18.608,18.608,0,0,1,3.994,253.256l1.751,1.419a.661.661,0,0,0,.832-1.026l-2.571-2.083a1.2,1.2,0,0,0-1.657.14L.165,254.19a.661.661,0,0,0,.992.872l1.518-1.727a19.929,19.929,0,0,0,15.089,17.738.661.661,0,1,0,.316-1.283Z" transform="translate(0 -229.161)"/><path class="a" d="M270.591,301.059a.66.66,0,0,0-.8.483,18.607,18.607,0,0,1-16.535,14.086l1.419-1.751a.661.661,0,0,0-1.027-.832l-2.083,2.571a1.2,1.2,0,0,0,.14,1.657l2.485,2.185a.661.661,0,1,0,.872-.992l-1.727-1.518a19.929,19.929,0,0,0,17.738-15.089A.661.661,0,0,0,270.591,301.059Z" transform="translate(-229.161 -274.522)"/><path class="a" d="M117.193,208.5a.661.661,0,0,0-.661.661v12.664a1.543,1.543,0,0,0,1.542,1.542h21.487a1.543,1.543,0,0,0,1.542-1.542v-2.534a.661.661,0,0,0-1.321,0v2.534a.22.22,0,0,1-.22.22H118.074a.22.22,0,0,1-.22-.22V209.161A.661.661,0,0,0,117.193,208.5Z" transform="translate(-106.267 -190.134)"/><path class="a" d="M141.1,136.279a1.543,1.543,0,0,0-1.541-1.542H118.073a1.543,1.543,0,0,0-1.542,1.542v2.534a.661.661,0,0,0,1.321,0v-2.534a.22.22,0,0,1,.22-.22H125.6v3.909a1.1,1.1,0,0,0,1.758.884l1.461-1.086,1.461,1.086a1.1,1.1,0,0,0,1.758-.884v-3.909h7.525a.22.22,0,0,1,.22.22v12.663a.661.661,0,1,0,1.321,0Zm-10.388,3.251-1.24-.922a1.1,1.1,0,0,0-1.314,0l-1.24.922v-3.471h3.794Z" transform="translate(-106.267 -122.868)"/><path class="a" d="M228.038,261.962h-4.517a.661.661,0,1,0,0,1.321h4.517a.661.661,0,1,0,0-1.321Z" transform="translate(-203.229 -238.887)"/><path class="a" d="M228.038,289.037h-4.517a.661.661,0,0,0,0,1.321h4.517a.661.661,0,0,0,0-1.321Z" transform="translate(-203.229 -263.577)"/><path class="a" d="M203.921,235.383a1.1,1.1,0,0,0,1.1-1.1V226.3a1.1,1.1,0,0,0-1.1-1.1h-8.7a1.1,1.1,0,0,0-1.1,1.1v7.98a1.1,1.1,0,0,0,1.1,1.1Zm-8.479-8.861H203.7v7.54h-8.259Z" transform="translate(-177.022 -205.364)"/></g></svg>