<svg xmlns="http://www.w3.org/2000/svg" width="42.4" height="33.567" viewBox="0 0 42.4 33.567"><defs><style>.a{fill:#fff;}</style></defs><g transform="translate(0 -6.25)"><g transform="translate(27.642 13.575)"><g transform="translate(0 0)"><path class="a" d="M40.365,16.616l-1.249,1.249,5.559,5.559-5.559,5.559,1.249,1.249,6.808-6.808Z" transform="translate(-39.116 -16.616)"/></g></g><g transform="translate(6.701 13.575)"><g transform="translate(0 0)"><path class="a" d="M17.539,17.865,16.29,16.616,9.482,23.424l6.808,6.808,1.249-1.249-5.559-5.559Z" transform="translate(-9.482 -16.616)"/></g></g><g transform="translate(16.85 11.22)"><g transform="translate(0 0)"><rect class="a" width="19.029" height="1.767" transform="translate(8.702 0.656) rotate(111.783)"/></g></g><g transform="translate(0 6.25)"><path class="a" d="M40.634,32.75V6.25H1.767v26.5H0v3.8l2.177,3.266H40.223L42.4,36.551v-3.8ZM3.533,8.017H38.867V32.75H3.533Zm37.1,28L39.278,38.05H3.123L1.767,36.016v-1.5H40.634Z" transform="translate(0 -6.25)"/></g><g transform="translate(16.783 35.4)"><rect class="a" width="1.767" height="1.767"/></g><g transform="translate(20.317 35.4)"><rect class="a" width="1.767" height="1.767"/></g><g transform="translate(23.85 35.4)"><rect class="a" width="1.767" height="1.767"/></g></g></svg>