<svg xmlns="http://www.w3.org/2000/svg" width="43.747" height="43.747" viewBox="0 0 43.747 43.747"><defs><style>.a{fill:#fff;}</style></defs><path class="a" d="M52.483,31.258a19.527,19.527,0,0,0-8.83-21.113.754.754,0,1,0-.791,1.284,18.02,18.02,0,0,1,8.195,19.306,5.292,5.292,0,1,0,1.427.523Zm-2.5,8.418A3.771,3.771,0,1,1,53.752,35.9,3.775,3.775,0,0,1,49.981,39.676Z" transform="translate(-11.513 -2.718)"/><path class="a" d="M28.791,51.236A18.091,18.091,0,0,1,9.038,47.258a5.277,5.277,0,1,0-1.208.918,19.592,19.592,0,0,0,21.538,4.453.754.754,0,1,0-.577-1.393ZM1.509,43.556A3.771,3.771,0,1,1,5.28,47.327,3.775,3.775,0,0,1,1.509,43.556Z" transform="translate(0 -10.368)"/><path class="a" d="M3.878,23.542l.054,0a.754.754,0,0,0,.752-.7A18.01,18.01,0,0,1,17.672,6.767a5.271,5.271,0,1,0-.217-1.506A19.514,19.514,0,0,0,3.178,22.738.753.753,0,0,0,3.878,23.542ZM22.734,1.509A3.771,3.771,0,1,1,18.963,5.28,3.775,3.775,0,0,1,22.734,1.509Z" transform="translate(-0.86)"/></svg>