<svg xmlns="http://www.w3.org/2000/svg" width="38.919" height="40.732" viewBox="0 0 38.919 40.732"><defs><style>.a{fill:#fff;}</style></defs><g transform="translate(-21 -10)"><path class="a" d="M212.065,431.413a1.37,1.37,0,1,0,1.37,1.37A1.37,1.37,0,0,0,212.065,431.413Zm0,1.746a.376.376,0,1,1,.376-.376A.376.376,0,0,1,212.065,433.159Z" transform="translate(-173.99 -386.524)"/><path class="a" d="M120.662,47H120.5a.5.5,0,1,0,0,.993h.166a.5.5,0,1,0,0-.993Z" transform="translate(-90.804 -33.937)"/><path class="a" d="M150.113,47H142.5a.5.5,0,1,0,0,.993h7.617a.5.5,0,1,0,0-.993Z" transform="translate(-110.983 -33.937)"/><path class="a" d="M52.072,159.993H55.86a.5.5,0,1,0,0-.993H52.072a.5.5,0,1,0,0,.993Z" transform="translate(-28.044 -136.664)"/><path class="a" d="M122.3,159.5a.5.5,0,0,0,.5.5h4.736a.5.5,0,0,0,0-.993H122.8A.5.5,0,0,0,122.3,159.5Z" transform="translate(-92.913 -136.664)"/><path class="a" d="M60.146,185.5a.5.5,0,0,0-.5-.5H52.072a.5.5,0,0,0,0,.993h7.577A.5.5,0,0,0,60.146,185.5Z" transform="translate(-28.044 -160.512)"/><path class="a" d="M169.5,185h-.947a.5.5,0,0,0,0,.993h.947a.5.5,0,1,0,0-.993Z" transform="translate(-134.884 -160.512)"/><path class="a" d="M56.205,211H52.072a.5.5,0,0,0,0,.993h4.133a.5.5,0,0,0,0-.993Z" transform="translate(-28.044 -184.359)"/><path class="a" d="M131.346,211h-4.391a.5.5,0,1,0,0,.993h4.391a.5.5,0,1,0,0-.993Z" transform="translate(-96.727 -184.359)"/><path class="a" d="M57.548,30.641a2.3,2.3,0,0,0-1.515-1.527,2.214,2.214,0,0,0-.948-.091,2.308,2.308,0,0,0-1.616.95,2.3,2.3,0,0,0-4.088.414,2.332,2.332,0,0,0-.315-.182V13.99A4.008,4.008,0,0,0,45.06,10H31.089a3.971,3.971,0,0,0-3.962,3.99v4.786H23.21A2.21,2.21,0,0,0,21,20.985V28.65a2.209,2.209,0,0,0,2.207,2.213h3.919v15.88a3.971,3.971,0,0,0,3.962,3.99H45.06a4.008,4.008,0,0,0,4.005-3.99v-.474a6.491,6.491,0,0,0,3.93.036L55.3,45.6a6.535,6.535,0,0,0,4.33-8.153ZM28.12,13.99a2.976,2.976,0,0,1,2.969-3H45.06a3.013,3.013,0,0,1,3.012,3V15.3H28.12ZM48.072,46.743a3.013,3.013,0,0,1-3.012,3H31.089a2.976,2.976,0,0,1-2.969-3V43.116H44.435l1.483.938a6.549,6.549,0,0,0,2.154,1.8Zm-7.051-6.962A2.316,2.316,0,0,1,43.9,39.3l.148.084.793,2.589c.029.1.061.189.094.281Zm13.991,4.868-2.307.707a5.54,5.54,0,0,1-6.912-3.671l-1.959-6.4a.5.5,0,0,0-.617-.331h0a.5.5,0,0,0-.333.622l.782,2.554a3.31,3.31,0,0,0-3.783,1.544.5.5,0,0,0,.166.666l2.816,1.781H28.12V30.863h.672A4.46,4.46,0,0,0,31.9,35.328a.492.492,0,0,0,.129.017.5.5,0,0,0,.437-.259.511.511,0,0,0,.043-.368c-.159-.653-.414-2.495.263-3.359a1.392,1.392,0,0,1,1.177-.5h1.485a2.2,2.2,0,0,0,2.2-2.2V20.982a2.206,2.206,0,0,0-2.206-2.206H32.756a.5.5,0,1,0,0,.993h2.68a1.211,1.211,0,0,1,1.211,1.211v7.666a1.223,1.223,0,0,1-1.223,1.223H33.951a2.353,2.353,0,0,0-1.961.878,4.688,4.688,0,0,0-.6,3.255,3.51,3.51,0,0,1-1.6-3.315.775.775,0,0,0-.761-.818H23.208a1.216,1.216,0,0,1-1.214-1.223V20.986a1.216,1.216,0,0,1,1.216-1.216h6.069a.5.5,0,0,0,0-.993H28.12V16.292H48.072V29.977a2.3,2.3,0,0,0-1.812.879L44.13,23.9a2.306,2.306,0,1,0-4.41,1.351l2.144,7a.5.5,0,0,0,.617.331h0a.5.5,0,0,0,.333-.622l-2.144-7a1.321,1.321,0,0,1,.338-1.328,1.012,1.012,0,0,1,.14-.118,1.317,1.317,0,0,1,2.032.677l3.921,12.8a.5.5,0,0,0,.95-.291l-1.236-4.036a1.313,1.313,0,1,1,2.51-.769l1.236,4.036a.5.5,0,0,0,.95-.291l-1.236-4.037a1.313,1.313,0,1,1,2.51-.769l1.236,4.037a.5.5,0,1,0,.95-.291L54.088,31.7a1.321,1.321,0,0,1,.343-1.333.992.992,0,0,1,.141-.118,1.321,1.321,0,0,1,1.387-.093,1.3,1.3,0,0,1,.639.775l2.084,6.8a5.541,5.541,0,0,1-3.67,6.912Z" transform="translate(0 0)"/></g></svg>